<svg xmlns="http://www.w3.org/2000/svg" viewBox="0 0 680 680">
  <defs>
    <radialGradient id="jewel" cx="45%" cy="45%" r="65%">
      <stop offset="0%" stop-color="#a84e00"/>
      <stop offset="50%" stop-color="#6b2f00"/>
      <stop offset="100%" stop-color="#1a0800"/>
    </radialGradient>
    <linearGradient id="gloss" x1="0" y1="0" x2="0" y2="1">
      <stop offset="0%" stop-color="#ffffff" stop-opacity="0.22"/>
      <stop offset="100%" stop-color="#ffffff" stop-opacity="0"/>
    </linearGradient>
    <clipPath id="iconshape">
      <rect x="40" y="40" width="600" height="600" rx="130"/>
    </clipPath>
  </defs>

  <rect x="40" y="40" width="600" height="600" rx="130" fill="url(#jewel)"/>
  <ellipse cx="330" cy="175" rx="120" ry="48" fill="url(#gloss)" clip-path="url(#iconshape)"/>
  <rect x="40" y="40" width="600" height="600" rx="130" fill="none" stroke="#c86000" stroke-width="1.0" stroke-opacity="0.5"/>
  <rect x="52" y="52" width="576" height="576" rx="120" fill="none" stroke="#ffffff" stroke-width="0.6" stroke-opacity="0.07"/>

  <g transform="translate(330,375) rotate(-35) scale(4.0) translate(-50,-57)" fill="#ffffff">
    <rect x="98.28" y="61.95" width="1.72" height="6.9"/>
    <path d="M31.62,44.65c-1.3.55-2.8.63-4.23.82-3,.31-5.93.4-9.01.41-4.27-.06-8.94-.08-12.82-1.06-1.67-.53,6.4-1.45,12.82-1.38,7.32,0,12.2.7,13.23,1.22Z"/>
    <path d="M33.67,60.71c-1.03-.05-1.83-.91-1.81-1.95v-13.22c-4.01,1.35-9.35,1.19-13.47,1.3-4.06-.08-9.25-.01-13.19-1.19-.1-.04-.19-.08-.28-.12v13.01c-.02,4.07,1.94,8.08,5.16,10.59,5.1,4.03,11.94,2.63,18.07,2.26,0,0,17.66-1.13,17.66-1.13,3.12-.19,6.23-.39,9.34-.59v-8.04l-21.49-.93ZM11.43,67.82c-2.58-1.54-3.56-4.13-4.15-6.81.93,3.42,3.67,6.4,7.25,8,.7.32,1.44.58,2.19.79-1.83-.49-3.71-1.01-5.29-1.98Z"/>
    <polygon points="97.32 63.48 97.32 67.01 56.12 69.62 56.12 61.69 97.32 63.48"/>
    <g transform="rotate(35, 22, 44)">
      <path d="M24.65,14.36c-3.64-1.54-5.93-4.06-7.3-8.25-1.01-3.12-2.58-5.07-4.7-5.79-3.62-1.23-7.67,1.53-7.72,1.56,0,0-.78.54-1.72,1.58C-2.42,9.44-.24,19.82,7.07,23.44c1.71.9,3.61,1.56,5.67,1.93.61.12.43,1.07-.18.95-1.51-.29-2.94-.71-4.28-1.26-.41.66-1.3,2.33-.97,4.08.54,3.07,4.77,4.48,7.23,5.83,1.36.68,2.97,1.18,3.81,2.64.88,1.49.28,3.6-.64,4.59-.08.1-.14.19-.21.29,2.06-.73,3.6-2.96,4.96-5.3,1.05-1.8,2-4.42.64-6.67-.61-1.01-2.13-1.7-3.46-2.31-.55-.31-1.56-.43-1.42-1.24.06-.3.31-.52.61-.53,1.83-.12,5.78-1.36,6.67-1.82,1.78-.89,4.72-2.8,4.54-5.46-.15-2.3-2.93-3.64-5.38-4.82ZM9.24,20.9c-.09.26-.36.37-.61.31-4.81-1.58-5.68-6.36-5.71-6.56-.09-.63.84-.78.95-.16.03.17.81,4.41,5.07,5.81.25.08.38.35.31.61Z"/>
    </g>
  </g>
</svg>
